<svg xmlns="http://www.w3.org/2000/svg" xmlns:xlink="http://www.w3.org/1999/xlink" width="375.209" height="225.608" viewBox="0 0 375.209 225.608">
  <defs>
    <linearGradient id="linear-gradient" x2="1" y2="0.697" gradientUnits="objectBoundingBox">
      <stop offset="0" stop-color="#f16436"/>
      <stop offset="0.464" stop-color="#f16735"/>
      <stop offset="1" stop-color="#f99a2b"/>
    </linearGradient>
    <filter id="Rectangle_481" x="-24" y="-20" width="423.209" height="273.608" filterUnits="userSpaceOnUse">
      <feOffset dy="4" input="SourceAlpha"/>
      <feGaussianBlur stdDeviation="8" result="blur"/>
      <feFlood flood-opacity="0.161"/>
      <feComposite operator="in" in2="blur"/>
      <feComposite in="SourceGraphic"/>
    </filter>
    <clipPath id="clip-path">
      <g transform="matrix(1, 0, 0, 1, 0, 0)" filter="url(#Rectangle_481)">
        <rect id="Rectangle_481-2" data-name="Rectangle 481" width="375.209" height="225.608" rx="12" transform="translate(80 -993)" fill="url(#linear-gradient)"/>
      </g>
    </clipPath>
    <clipPath id="clip-green">
      <rect width="375.209" height="225.608"/>
    </clipPath>
  </defs>
  <g id="green" clip-path="url(#clip-green)">
    <g id="Mask_Group_9" data-name="Mask Group 9" transform="translate(-80 993)" opacity="0.3" clip-path="url(#clip-path)">
      <path id="path" d="M19.676,309.474c23.227-.632,24.219-15.325,47.4-15.507s28.484,18.8,46.247,18.887,35.212-27.092,62.188-28.18,39.374,14.032,69.373,13.879,49.844-22.268,84.008-23.475a84.886,84.886,0,0,1,11.2.324c25.11,2.361,34.437,16.394,60.523,15.939,29.476-.514,47.3-49.448,98.547-51.863s59.184,31.89,111.372,32.161,28.1,15.266,78.1,15.84,125.828,48.394,125.828,48.394H-15.9Z" transform="translate(95.302 -1146.698)" fill="#4aff7f" opacity="0.31"/>
      <path id="path-2" data-name="path" d="M20.589,309.474c23.823-.632,24.84-15.325,48.612-15.507s29.215,18.8,47.434,18.887,36.115-27.092,63.784-28.18,40.384,14.032,71.153,13.879,51.123-22.268,86.164-23.475,43.328,16.776,73.56,16.263,48.51-49.448,101.076-51.863,60.7,31.89,114.23,32.161,28.82,15.266,80.1,15.84,129.057,48.394,129.057,48.394H-15.9Z" transform="translate(241.487 -1146.698)" fill="#00db3f" opacity="0.43"/>
    </g>
  </g>
</svg>
