<svg xmlns="http://www.w3.org/2000/svg" xmlns:xlink="http://www.w3.org/1999/xlink" width="78.039" height="49.661" viewBox="0 0 78.039 49.661">
  <defs>
    <clipPath id="clip-Pawnshop">
      <rect width="78.039" height="49.661"/>
    </clipPath>
  </defs>
  <g id="Pawnshop" clip-path="url(#clip-Pawnshop)">
    <path id="ic_group_24px" d="M54.209,26.283A10.642,10.642,0,1,0,43.567,15.642,10.6,10.6,0,0,0,54.209,26.283Zm-28.378,0A10.642,10.642,0,1,0,15.189,15.642,10.6,10.6,0,0,0,25.831,26.283Zm0,7.094C17.566,33.378,1,37.528,1,45.793v8.868H50.661V45.793C50.661,37.528,34.1,33.378,25.831,33.378Zm28.378,0c-1.029,0-2.2.071-3.441.177,4.115,2.98,6.988,6.988,6.988,12.238v8.868H79.039V45.793C79.039,37.528,62.474,33.378,54.209,33.378Z" transform="translate(-1 -5)" fill="#fff"/>
  </g>
</svg>
