<svg xmlns="http://www.w3.org/2000/svg" xmlns:xlink="http://www.w3.org/1999/xlink" width="118" height="84.973" viewBox="0 0 118 84.973">
  <defs>
    <clipPath id="clip-third">
      <rect width="118" height="84.973"/>
    </clipPath>
  </defs>
  <g id="third" clip-path="url(#clip-third)">
    <g id="undraw_wallet_aym5_1_" data-name="undraw_wallet_aym5 (1)" transform="translate(-179.83)">
      <path id="Path_170" data-name="Path 170" d="M323.362,274.326s-.229,14.217,2.292,18.9,3.6,25.028,3.6,25.028,26.424,2.733,44.838-3.274,57.6-8.464,57.6-8.464l-6.6-44.5s-32.62-2.092-51.176,6.758S323.362,274.326,323.362,274.326Z" transform="translate(-133.859 -238.295)" fill="#d2d2d2"/>
      <path id="Path_171" data-name="Path 171" d="M373.91,268.767Z" transform="translate(-133.859 -238.295)" opacity="0.1"/>
      <path id="Path_172" data-name="Path 172" d="M358.289,295.575s-.827,11.731,1.247,15.479,2.17,20.481,2.17,20.481,23.781,1.1,40.7-4.655,52.464-9.493,52.464-9.493l-4.04-36.394s-29.413-.3-46.58,7.8S358.289,295.575,358.289,295.575Z" transform="translate(-162.937 -254.35)" fill="#fff"/>
      <path id="Path_173" data-name="Path 173" d="M360.237,130.66s-31.69,8.02-46.634,22.138-46.4,20.8-46.4,20.8,4.144,13.6,7.978,17.28,11.1,22.719,11.1,22.719,25.987-5.509,41.668-16.882,52.225-25.735,52.225-25.735Z" transform="translate(-86.894 -128.625)" opacity="0.2"/>
      <path id="Path_174" data-name="Path 174" d="M264.29,161.168s4.143,13.6,7.973,17.281,11.1,22.717,11.1,22.717,25.991-5.508,41.673-16.88,52.224-25.73,52.224-25.73L357.326,118.23s-31.688,8.02-46.632,22.138S264.29,161.168,264.29,161.168Z" transform="translate(-84.46 -118.23)" fill="#dfdfdf"/>
      <path id="Path_176" data-name="Path 176" d="M308,183.778s2.814,11.42,5.938,14.35,8.348,18.823,8.348,18.823,22.971-6.249,37.3-16.921,47.024-25.12,47.024-25.12L391.6,141.5s-28.086,8.736-41.938,21.719S308,183.778,308,183.778Z" transform="translate(-121.016 -137.691)" fill="#f5fff1"/>
    </g>
  </g>
</svg>
